Cover:
===================================================================================
http://img502.imageshack.us/img502/8760/picphph0.jpg
===================================================================================

Storyline:
===================================================================================
Based on J. G. Ballard's autobiographical novel, tells the story of a boy, James Graham, whose privileged life is upturned by the Japanese invasion of Shanghai, December 8, 1941. Separated from his parents, he is eventually captured, and taken to Soo Chow confinement camp, next to a captured Chinese airfield. Amidst the sickness and food shortages in the camp, Jim attempts to reconstruct his former life, all the while bringing spirit and dignity to those around him.
===================================================================================

Cast:
===================================================================================
Christian Bale as James "Jamie" Graham
John Malkovich as Basie
Miranda Richardson as Mrs. Victor
Nigel Havers as Dr. Rawlins
===================================================================================

Video Specs:
===================================================================================Format                           : AVC
Format/Info                      : Advanced Video Codec
Format profile                   : High@L3.0
Format settings, CABAC           : Yes
Format settings, ReFrames        : 4 frames
Format settings, GOP             : M=4, N=32
Codec ID                         : avc1
Codec ID/Info                    : Advanced Video Coding
Duration                         : 2h 26mn
Bit rate mode                    : Variable
Bit rate                         : 1 011 Kbps
Maximum bit rate                 : 5 438 Kbps
Width                            : 608 pixels
Height                           : 352 pixels
Display aspect ratio             : 1.568
Original display aspect ratio    : 1.570
Frame rate mode                  : Constant
Frame rate                       : 25.000 fps
Color space                      : YUV
Chroma subsampling               : 4:2:0
Bit depth                        : 8 bits
Scan type                        : Progressive
Bits/(Pixel*Frame)               : 0.189
Stream size                      : 1.03 GiB (89%)
===================================================================================

Audio Specs:
===================================================================================
Format                           : MPEG Audio
Format version                   : Version 1
Format profile                   : Layer 3
Mode                             : Joint stereo
Codec ID                         : 6B
Duration                         : 2h 26mn
Bit rate mode                    : Variable
Bit rate                         : 126 Kbps
Minimum bit rate                 : 32.0 Kbps
Maximum bit rate                 : 202 Kbps
Channel(s)                       : 2 channels
Sampling rate                    : 48.0 KHz
Stream size                      : 132 MiB (11%)
Writing library                  : LAME3.98r
Encoding settings                : -m j -V 5 -q 2 -lowpass 16.5 --vbr-new -b 32
===================================================================================

Screens:
===================================================================================
http://img820.imageshack.us/img820/7427/vlcsnap2010120817h21m46.png
http://img41.imageshack.us/img41/2832/vlcsnap2010120817h21m59.png
http://img641.imageshack.us/img641/1897/vlcsnap2010120817h22m13.png
http://img43.imageshack.us/img43/4034/vlcsnap2010120817h22m47.png
http://img829.imageshack.us/img829/8946/vlcsnap2010120817h23m41.png
http://img574.imageshack.us/img574/6097/vlcsnap2010120817h24m11.png
===================================================================================
Enjoy!!